<svg width="28" height="31" viewBox="0 0 28 31" fill="none" xmlns="http://www.w3.org/2000/svg">
<g filter="url(#filter0_d_1_12)">
<path d="M18.6 14.5C18.4 14.4 17.1 13.8 16.9 13.7C16.7 13.6 16.5 13.6 16.3 13.8C16.1 14 15.7 14.6 15.5 14.8C15.4 15 15.2 15 15 14.9C14.3 14.6 13.6 14.2 13 13.7C12.5 13.2 12 12.6 11.6 12C11.5 11.8 11.6 11.6 11.7 11.5C11.8 11.4 11.9 11.2 12.1 11.1C12.2 11 12.3 10.8 12.3 10.7C12.4 10.6 12.4 10.4 12.3 10.3C12.2 10.2 11.7 9.00001 11.5 8.50001C11.4 7.80001 11.2 7.80001 11 7.80001C10.9 7.80001 10.7 7.80001 10.5 7.80001C10.3 7.80001 10 8.00001 9.9 8.10001C9.3 8.70001 9 9.40001 9 10.2C9.1 11.1 9.4 12 10 12.8C11.1 14.4 12.5 15.7 14.2 16.5C14.7 16.7 15.1 16.9 15.6 17C16.1 17.2 16.6 17.2 17.2 17.1C17.9 17 18.5 16.5 18.9 15.9C19.1 15.5 19.1 15.1 19 14.7C19 14.7 18.8 14.6 18.6 14.5ZM21.1 5.40001C17.2 1.50001 10.9 1.50001 7 5.40001C3.8 8.60001 3.2 13.5 5.4 17.4L4 22.5L9.3 21.1C10.8 21.9 12.4 22.3 14 22.3C19.5 22.3 23.9 17.9 23.9 12.4C24 9.80001 22.9 7.30001 21.1 5.40001ZM18.4 19.4C17.1 20.2 15.6 20.7 14 20.7C12.5 20.7 11.1 20.3 9.8 19.6L9.5 19.4L6.4 20.2L7.2 17.2L7 16.9C4.6 12.9 5.8 7.90001 9.7 5.40001C13.6 2.90001 18.6 4.20001 21 8.00001C23.4 11.9 22.3 17 18.4 19.4Z" fill="#F9F9F9"/>
</g>
<defs>
<filter id="filter0_d_1_12" x="-2" y="0.5" width="32" height="32" filterUnits="userSpaceOnUse" color-interpolation-filters="sRGB">
<feFlood flood-opacity="0" result="BackgroundImageFix"/>
<feColorMatrix in="SourceAlpha" type="matrix" values="0 0 0 0 0 0 0 0 0 0 0 0 0 0 0 0 0 0 127 0" result="hardAlpha"/>
<feOffset dy="4"/>
<feGaussianBlur stdDeviation="2"/>
<feComposite in2="hardAlpha" operator="out"/>
<feColorMatrix type="matrix" values="0 0 0 0 0 0 0 0 0 0 0 0 0 0 0 0 0 0 0.25 0"/>
<feBlend mode="normal" in2="BackgroundImageFix" result="effect1_dropShadow_1_12"/>
<feBlend mode="normal" in="SourceGraphic" in2="effect1_dropShadow_1_12" result="shape"/>
</filter>
</defs>
</svg>
